<?xml version="1.0" encoding="UTF-8" standalone="no"?>
<!-- Created with Inkscape (http://www.inkscape.org/) -->

<svg
   width="65.576729mm"
   height="65.576729mm"
   viewBox="0 0 65.576729 65.576729"
   version="1.1"
   id="svg41332"
   inkscape:version="1.1.2 (b8e25be833, 2022-02-05)"
   sodipodi:docname="datacenter cylinder.svg"
   xmlns:inkscape="http://www.inkscape.org/namespaces/inkscape"
   xmlns:sodipodi="http://sodipodi.sourceforge.net/DTD/sodipodi-0.dtd"
   xmlns="http://www.w3.org/2000/svg"
   xmlns:svg="http://www.w3.org/2000/svg">
  <sodipodi:namedview
     id="namedview41334"
     pagecolor="#ffffff"
     bordercolor="#666666"
     borderopacity="1.0"
     inkscape:pageshadow="2"
     inkscape:pageopacity="0.0"
     inkscape:pagecheckerboard="0"
     inkscape:document-units="mm"
     showgrid="false"
     fit-margin-top="0"
     fit-margin-left="0"
     fit-margin-right="0"
     fit-margin-bottom="0"
     inkscape:zoom="0.7198092"
     inkscape:cx="-33.342169"
     inkscape:cy="349.39814"
     inkscape:window-width="1920"
     inkscape:window-height="1001"
     inkscape:window-x="-9"
     inkscape:window-y="-9"
     inkscape:window-maximized="1"
     inkscape:current-layer="layer1" />
  <defs
     id="defs41329" />
  <g
     inkscape:label="Ebene 1"
     inkscape:groupmode="layer"
     id="layer1"
     transform="translate(-113.87378,-56.164608)">
    <circle
       style="fill:#0088aa;fill-opacity:1;stroke:#004455;stroke-width:1.265;stroke-linecap:round;stroke-linejoin:round;stroke-miterlimit:4;stroke-dasharray:none;stroke-opacity:1;paint-order:markers fill stroke"
       id="path18354"
       cx="146.66214"
       cy="88.952972"
       r="32.155865" />
    <path
       style="fill:#ffffff;fill-opacity:1;stroke:#0088aa;stroke-width:0.16;stroke-linecap:round;stroke-linejoin:round;stroke-miterlimit:4;stroke-dasharray:none;stroke-opacity:1"
       d="m 131.97775,72.266506 0.15962,33.997534 c 0,0 3.51147,4.30954 14.84398,3.67108 11.33251,-0.63845 14.20554,-3.99031 14.20554,-3.99031 l 0.15961,-33.678304 c 0,0 -2.60395,-4.6446 -15.16321,-4.30205 -10.23135,0.27906 -13.56709,2.06748 -14.20554,4.30205 z"
       id="path19517"
       sodipodi:nodetypes="ccsccsc" />
    <path
       style="fill:none;stroke:#0088aa;stroke-width:1.18348;stroke-linecap:butt;stroke-linejoin:miter;stroke-miterlimit:4;stroke-dasharray:none;stroke-opacity:1"
       d="m 131.75505,71.061486 c 0,0 -1.14543,6.88932 16.39397,6.09557 17.53941,-0.79375 13.76645,-5.03723 13.76645,-5.03723"
       id="path26267"
       sodipodi:nodetypes="csc" />
    <path
       style="fill:none;stroke:#0088aa;stroke-width:1.18348;stroke-linecap:butt;stroke-linejoin:miter;stroke-miterlimit:4;stroke-dasharray:none;stroke-opacity:1"
       d="m 131.49046,79.528186 c 0,0 -1.14543,6.88932 16.39397,6.09557 17.53941,-0.79375 13.76645,-5.03723 13.76645,-5.03723"
       id="path26267-4"
       sodipodi:nodetypes="csc" />
    <path
       style="fill:none;stroke:#0088aa;stroke-width:1.19878;stroke-linecap:butt;stroke-linejoin:miter;stroke-miterlimit:4;stroke-dasharray:none;stroke-opacity:1"
       d="m 130.9613,95.932446 c 0,0 -1.17524,6.889324 16.82059,6.095574 17.99583,-0.79375 14.12469,-5.037234 14.12469,-5.037234"
       id="path26267-4-10"
       sodipodi:nodetypes="csc" />
    <path
       style="fill:none;stroke:#0088aa;stroke-width:1.18348;stroke-linecap:butt;stroke-linejoin:miter;stroke-miterlimit:4;stroke-dasharray:none;stroke-opacity:1"
       d="m 131.49045,87.730286 c 0,0 -1.14543,6.88932 16.39398,6.09557 17.5394,-0.79375 13.76645,-5.03723 13.76645,-5.03723"
       id="path26267-4-1"
       sodipodi:nodetypes="csc" />
    <path
       style="fill:#0088aa;fill-opacity:1;stroke:#0088aa;stroke-width:1.065;stroke-linecap:round;stroke-linejoin:round;stroke-miterlimit:4;stroke-dasharray:none;stroke-opacity:1"
       d="m 149.74671,81.115656 c 0,0 2.64584,0 4.23334,-0.26459"
       id="path28698" />
    <path
       style="fill:#0088aa;fill-opacity:1;stroke:#0088aa;stroke-width:1.065;stroke-linecap:round;stroke-linejoin:round;stroke-miterlimit:4;stroke-dasharray:none;stroke-opacity:1"
       d="m 150.0113,89.317776 c 0,0 2.64583,0 4.23333,-0.26459"
       id="path28698-6" />
    <path
       style="fill:#0088aa;fill-opacity:1;stroke:#0088aa;stroke-width:1.065;stroke-linecap:round;stroke-linejoin:round;stroke-miterlimit:4;stroke-dasharray:none;stroke-opacity:1"
       d="m 150.27588,105.9865 c 0,0 3.175,-1e-5 4.49792,-0.52917"
       id="path28698-6-9-4"
       sodipodi:nodetypes="cc" />
    <path
       style="fill:#0088aa;fill-opacity:1;stroke:#0088aa;stroke-width:1.065;stroke-linecap:round;stroke-linejoin:round;stroke-miterlimit:4;stroke-dasharray:none;stroke-opacity:1"
       d="m 150.01129,98.048946 c 0,0 3.175,-1e-5 4.49792,-0.52917"
       id="path28698-6-9-4-1"
       sodipodi:nodetypes="cc" />
    <path
       style="fill:none;stroke:#0088aa;stroke-width:1.065;stroke-linecap:round;stroke-linejoin:round;stroke-miterlimit:4;stroke-dasharray:none;stroke-opacity:1"
       d="m 155.62046,80.612946 c 0,0 1.5875,-0.26457 2.11667,-0.52916"
       id="path36821"
       sodipodi:nodetypes="cc" />
    <path
       style="fill:none;stroke:#0088aa;stroke-width:1.065;stroke-linecap:round;stroke-linejoin:round;stroke-miterlimit:4;stroke-dasharray:none;stroke-opacity:1"
       d="m 155.69984,88.735676 c 0,0 1.5875,-0.26457 2.11666,-0.52916"
       id="path36821-9"
       sodipodi:nodetypes="cc" />
    <path
       style="fill:none;stroke:#0088aa;stroke-width:1.065;stroke-linecap:round;stroke-linejoin:round;stroke-miterlimit:4;stroke-dasharray:none;stroke-opacity:1"
       d="m 156.0438,97.255236 c 0,0 1.5875,-0.26457 2.11666,-0.52916"
       id="path36821-9-3"
       sodipodi:nodetypes="cc" />
    <path
       style="fill:none;stroke:#0088aa;stroke-width:1.065;stroke-linecap:round;stroke-linejoin:round;stroke-miterlimit:4;stroke-dasharray:none;stroke-opacity:1"
       d="m 156.41421,105.13982 c 0,0 1.5875,-0.26457 2.11667,-0.52916"
       id="path36821-9-3-7"
       sodipodi:nodetypes="cc" />
    <ellipse
       style="fill:#ffffff;fill-opacity:1;stroke:none;stroke-width:1.11579;stroke-linecap:round;stroke-linejoin:round;stroke-miterlimit:4;stroke-dasharray:none;stroke-opacity:1;paint-order:markers fill stroke"
       id="path41096"
       cx="160.97736"
       cy="73.045868"
       rx="0.43563232"
       ry="0.92604166" />
  </g>
</svg>
